<svg width="26" height="21" viewBox="0 0 26 21" fill="none" xmlns="http://www.w3.org/2000/svg">
<path d="M19.4044 16.4895C18.0818 16.4895 17.0117 17.4171 17.0117 18.5507C17.0117 19.6844 18.0818 20.6119 19.4044 20.6119C20.727 20.6119 21.8092 19.6844 21.8092 18.5507C21.8092 17.4171 20.727 16.4895 19.4044 16.4895ZM7.38083 16.4895C6.05823 16.4895 4.98813 17.4171 4.98813 18.5507C4.98813 19.6844 6.05823 20.6119 7.38083 20.6119C8.70343 20.6119 9.78555 19.6844 9.78555 18.5507C9.78555 17.4171 8.70343 16.4895 7.38083 16.4895ZM7.38083 13.3977L8.70343 11.3366H17.661C18.5628 11.3366 19.3564 10.914 19.7652 10.275L25.0555 2.06119H5.2286L4.09838 0H0.166656V2.06119H2.57138L6.89988 9.88342L3.31684 15.4589H21.8092V13.3977H7.38083Z" fill="#272727"/>
</svg>
